<svg width="130" height="14" viewBox="0 0 130 14" fill="none" xmlns="http://www.w3.org/2000/svg">
<path d="M5.89844 1.58008H8.52344L14.4297 13.791H11.8281L10.8516 11.7363H3.71875L2.77344 13.791H0.164062L5.89844 1.58008ZM9.875 9.69727L7.23438 4.15039L4.66406 9.69727H9.875ZM15.3281 9.2207C15.3281 8.48633 15.4661 7.82487 15.7422 7.23633C16.0182 6.64258 16.3984 6.13737 16.8828 5.7207C17.3724 5.29883 17.9505 4.97591 18.6172 4.75195C19.2891 4.52279 20.0156 4.4082 20.7969 4.4082C21.1302 4.4082 21.4583 4.42904 21.7812 4.4707C22.1094 4.51237 22.4219 4.56966 22.7188 4.64258C23.0208 4.71549 23.3021 4.80404 23.5625 4.9082C23.8281 5.00716 24.0625 5.11654 24.2656 5.23633V0.830078H26.5781V13.791H24.2656V12.9238C24.0625 13.0645 23.8229 13.1973 23.5469 13.3223C23.2708 13.4473 22.974 13.5566 22.6562 13.6504C22.3385 13.7441 22.0078 13.8171 21.6641 13.8691C21.3255 13.9264 20.9896 13.9551 20.6562 13.9551C19.875 13.9551 19.1562 13.8405 18.5 13.6113C17.849 13.3822 17.2891 13.0592 16.8203 12.6426C16.3516 12.2259 15.9844 11.7285 15.7188 11.1504C15.4583 10.5671 15.3281 9.92383 15.3281 9.2207ZM17.7578 9.2207C17.7578 9.59049 17.8307 9.93945 17.9766 10.2676C18.1276 10.5957 18.3411 10.8848 18.6172 11.1348C18.8984 11.3796 19.2344 11.5749 19.625 11.7207C20.0208 11.8613 20.4635 11.9316 20.9531 11.9316C21.2656 11.9316 21.5781 11.903 21.8906 11.8457C22.2031 11.7832 22.5026 11.6973 22.7891 11.5879C23.0807 11.4785 23.3516 11.3457 23.6016 11.1895C23.8568 11.0332 24.0781 10.8587 24.2656 10.666V7.4707C24.0312 7.2832 23.7839 7.12435 23.5234 6.99414C23.263 6.86393 22.9974 6.75716 22.7266 6.67383C22.4557 6.59049 22.1823 6.5306 21.9062 6.49414C21.6302 6.45247 21.362 6.43164 21.1016 6.43164C20.5703 6.43164 20.0964 6.50456 19.6797 6.65039C19.2682 6.79102 18.9193 6.98633 18.6328 7.23633C18.3516 7.48633 18.1354 7.7806 17.9844 8.11914C17.8333 8.45768 17.7578 8.82487 17.7578 9.2207ZM28.7031 9.2207C28.7031 8.48633 28.8411 7.82487 29.1172 7.23633C29.3932 6.64258 29.7734 6.13737 30.2578 5.7207C30.7474 5.29883 31.3255 4.97591 31.9922 4.75195C32.6641 4.52279 33.3906 4.4082 34.1719 4.4082C34.5052 4.4082 34.8333 4.42904 35.1562 4.4707C35.4844 4.51237 35.7969 4.56966 36.0938 4.64258C36.3958 4.71549 36.6771 4.80404 36.9375 4.9082C37.2031 5.00716 37.4375 5.11654 37.6406 5.23633V0.830078H39.9531V13.791H37.6406V12.9238C37.4375 13.0645 37.1979 13.1973 36.9219 13.3223C36.6458 13.4473 36.349 13.5566 36.0312 13.6504C35.7135 13.7441 35.3828 13.8171 35.0391 13.8691C34.7005 13.9264 34.3646 13.9551 34.0312 13.9551C33.25 13.9551 32.5312 13.8405 31.875 13.6113C31.224 13.3822 30.6641 13.0592 30.1953 12.6426C29.7266 12.2259 29.3594 11.7285 29.0938 11.1504C28.8333 10.5671 28.7031 9.92383 28.7031 9.2207ZM31.1328 9.2207C31.1328 9.59049 31.2057 9.93945 31.3516 10.2676C31.5026 10.5957 31.7161 10.8848 31.9922 11.1348C32.2734 11.3796 32.6094 11.5749 33 11.7207C33.3958 11.8613 33.8385 11.9316 34.3281 11.9316C34.6406 11.9316 34.9531 11.903 35.2656 11.8457C35.5781 11.7832 35.8776 11.6973 36.1641 11.5879C36.4557 11.4785 36.7266 11.3457 36.9766 11.1895C37.2318 11.0332 37.4531 10.8587 37.6406 10.666V7.4707C37.4062 7.2832 37.1589 7.12435 36.8984 6.99414C36.638 6.86393 36.3724 6.75716 36.1016 6.67383C35.8307 6.59049 35.5573 6.5306 35.2812 6.49414C35.0052 6.45247 34.737 6.43164 34.4766 6.43164C33.9453 6.43164 33.4714 6.50456 33.0547 6.65039C32.6432 6.79102 32.2943 6.98633 32.0078 7.23633C31.7266 7.48633 31.5104 7.7806 31.3594 8.11914C31.2083 8.45768 31.1328 8.82487 31.1328 9.2207ZM48.3984 1.58008H50.875L55.3125 6.0332L59.75 1.58008H62.2266V13.791H59.75V5.00977L55.3125 9.2832L50.875 5.00977V13.791H48.3984V1.58008ZM64.9766 10.8848C64.9766 10.4421 65.0729 10.0384 65.2656 9.67383C65.4583 9.30924 65.7474 8.99674 66.1328 8.73633C66.5182 8.4707 66.9974 8.26758 67.5703 8.12695C68.1484 7.98112 68.8203 7.9082 69.5859 7.9082C70.1536 7.9082 70.75 7.94987 71.375 8.0332C72.0052 8.11654 72.6536 8.24414 73.3203 8.41602C73.2943 8.12435 73.2057 7.85612 73.0547 7.61133C72.9036 7.36133 72.6927 7.14779 72.4219 6.9707C72.1562 6.78841 71.8333 6.64779 71.4531 6.54883C71.0781 6.44987 70.651 6.40039 70.1719 6.40039C69.9115 6.40039 69.625 6.41602 69.3125 6.44727C69 6.47852 68.6771 6.52539 68.3438 6.58789C68.0104 6.65039 67.6797 6.72852 67.3516 6.82227C67.0286 6.91602 66.7266 7.02799 66.4453 7.1582L65.7422 5.25977C66.0911 5.13477 66.4635 5.02018 66.8594 4.91602C67.2604 4.81185 67.6693 4.72331 68.0859 4.65039C68.5026 4.57227 68.9193 4.51237 69.3359 4.4707C69.7526 4.42904 70.1562 4.4082 70.5469 4.4082C72.2708 4.4082 73.5521 4.84831 74.3906 5.72852C75.2292 6.60872 75.6484 7.95768 75.6484 9.77539V13.791H73.3359V12.9238C73.0964 13.0645 72.8333 13.1973 72.5469 13.3223C72.2656 13.4473 71.9583 13.5566 71.625 13.6504C71.2917 13.7441 70.9323 13.8171 70.5469 13.8691C70.1667 13.9264 69.763 13.9551 69.3359 13.9551C68.6172 13.9551 67.9844 13.877 67.4375 13.7207C66.8958 13.5645 66.4427 13.3483 66.0781 13.0723C65.7135 12.7962 65.4375 12.4733 65.25 12.1035C65.0677 11.7285 64.9766 11.3223 64.9766 10.8848ZM67.4141 10.8066C67.4141 10.9577 67.4531 11.1035 67.5312 11.2441C67.6094 11.3796 67.7344 11.502 67.9062 11.6113C68.0781 11.7155 68.2969 11.8014 68.5625 11.8691C68.8333 11.9316 69.1589 11.9629 69.5391 11.9629C69.9453 11.9629 70.3385 11.9264 70.7188 11.8535C71.099 11.7806 71.4531 11.6842 71.7812 11.5645C72.1094 11.4447 72.4062 11.3066 72.6719 11.1504C72.9375 10.9941 73.1589 10.8327 73.3359 10.666V10.2598C72.9818 10.1608 72.6302 10.0775 72.2812 10.0098C71.9375 9.94206 71.6068 9.88997 71.2891 9.85352C70.9766 9.81185 70.6797 9.7832 70.3984 9.76758C70.1224 9.75195 69.8802 9.74414 69.6719 9.74414C69.2396 9.74414 68.8802 9.77279 68.5938 9.83008C68.3073 9.88737 68.0755 9.96549 67.8984 10.0645C67.7214 10.1582 67.5964 10.2702 67.5234 10.4004C67.4505 10.5306 67.4141 10.666 67.4141 10.8066ZM80.1016 6.30664H77.875V4.57227H80.1016V1.70508H82.4141V4.57227H84.6406V6.30664H82.4141V13.791H80.1016V6.30664ZM86.2578 9.15039C86.2578 8.52539 86.3854 7.92904 86.6406 7.36133C86.8958 6.78841 87.263 6.2832 87.7422 5.8457C88.2214 5.4082 88.8073 5.05924 89.5 4.79883C90.1979 4.53841 90.9896 4.4082 91.875 4.4082C92.7552 4.4082 93.5469 4.54102 94.25 4.80664C94.9583 5.06706 95.5573 5.42643 96.0469 5.88477C96.5417 6.3431 96.9193 6.88216 97.1797 7.50195C97.4453 8.12174 97.5781 8.78581 97.5781 9.49414C97.5781 9.58268 97.5755 9.67904 97.5703 9.7832C97.5703 9.88216 97.5651 9.97331 97.5547 10.0566H88.8359C88.9349 10.3327 89.0938 10.5853 89.3125 10.8145C89.5365 11.0436 89.8151 11.2415 90.1484 11.4082C90.4818 11.5749 90.8672 11.7051 91.3047 11.7988C91.7422 11.8874 92.2266 11.9316 92.7578 11.9316C93.2891 11.9316 93.8177 11.877 94.3438 11.7676C94.8698 11.653 95.3724 11.5098 95.8516 11.3379L96.6328 13.1035C96.3307 13.2441 96.0234 13.3691 95.7109 13.4785C95.4036 13.5827 95.0807 13.6712 94.7422 13.7441C94.4089 13.8118 94.0573 13.8639 93.6875 13.9004C93.3229 13.9368 92.9375 13.9551 92.5312 13.9551C91.4948 13.9551 90.5859 13.8301 89.8047 13.5801C89.0234 13.3301 88.3698 12.9889 87.8438 12.5566C87.3177 12.1243 86.9219 11.6165 86.6562 11.0332C86.3906 10.4499 86.2578 9.82227 86.2578 9.15039ZM95.125 8.25195C95.0417 7.99674 94.9115 7.75977 94.7344 7.54102C94.5625 7.31706 94.3464 7.12435 94.0859 6.96289C93.8255 6.79622 93.5234 6.66602 93.1797 6.57227C92.8359 6.47852 92.4583 6.43164 92.0469 6.43164C91.6094 6.43164 91.2109 6.48112 90.8516 6.58008C90.4922 6.67904 90.1771 6.81185 89.9062 6.97852C89.6354 7.14518 89.4089 7.33789 89.2266 7.55664C89.0495 7.77539 88.9193 8.00716 88.8359 8.25195H95.125ZM100.07 4.57227H102.383V5.90039C102.893 5.52018 103.432 5.19206 104 4.91602C104.568 4.63997 105.133 4.42904 105.695 4.2832L106.375 6.40039C105.484 6.48893 104.701 6.68945 104.023 7.00195C103.352 7.30924 102.805 7.74414 102.383 8.30664V13.791H100.07V4.57227ZM109.32 3.31445C109.091 3.31445 108.883 3.2832 108.695 3.2207C108.513 3.15299 108.357 3.06445 108.227 2.95508C108.096 2.84049 107.995 2.71029 107.922 2.56445C107.854 2.41341 107.82 2.25456 107.82 2.08789C107.82 1.91602 107.854 1.75716 107.922 1.61133C107.995 1.46029 108.096 1.33008 108.227 1.2207C108.357 1.11133 108.513 1.02539 108.695 0.962891C108.883 0.895182 109.091 0.861328 109.32 0.861328C109.555 0.861328 109.763 0.895182 109.945 0.962891C110.133 1.02539 110.292 1.11133 110.422 1.2207C110.552 1.33008 110.651 1.46029 110.719 1.61133C110.792 1.75716 110.828 1.91602 110.828 2.08789C110.828 2.25456 110.792 2.41341 110.719 2.56445C110.651 2.71029 110.552 2.84049 110.422 2.95508C110.292 3.06445 110.133 3.15299 109.945 3.2207C109.763 3.2832 109.555 3.31445 109.32 3.31445ZM108.164 4.57227H110.477V13.791H108.164V4.57227ZM113.008 10.8848C113.008 10.4421 113.104 10.0384 113.297 9.67383C113.49 9.30924 113.779 8.99674 114.164 8.73633C114.549 8.4707 115.029 8.26758 115.602 8.12695C116.18 7.98112 116.852 7.9082 117.617 7.9082C118.185 7.9082 118.781 7.94987 119.406 8.0332C120.036 8.11654 120.685 8.24414 121.352 8.41602C121.326 8.12435 121.237 7.85612 121.086 7.61133C120.935 7.36133 120.724 7.14779 120.453 6.9707C120.188 6.78841 119.865 6.64779 119.484 6.54883C119.109 6.44987 118.682 6.40039 118.203 6.40039C117.943 6.40039 117.656 6.41602 117.344 6.44727C117.031 6.47852 116.708 6.52539 116.375 6.58789C116.042 6.65039 115.711 6.72852 115.383 6.82227C115.06 6.91602 114.758 7.02799 114.477 7.1582L113.773 5.25977C114.122 5.13477 114.495 5.02018 114.891 4.91602C115.292 4.81185 115.701 4.72331 116.117 4.65039C116.534 4.57227 116.951 4.51237 117.367 4.4707C117.784 4.42904 118.188 4.4082 118.578 4.4082C120.302 4.4082 121.583 4.84831 122.422 5.72852C123.26 6.60872 123.68 7.95768 123.68 9.77539V13.791H121.367V12.9238C121.128 13.0645 120.865 13.1973 120.578 13.3223C120.297 13.4473 119.99 13.5566 119.656 13.6504C119.323 13.7441 118.964 13.8171 118.578 13.8691C118.198 13.9264 117.794 13.9551 117.367 13.9551C116.648 13.9551 116.016 13.877 115.469 13.7207C114.927 13.5645 114.474 13.3483 114.109 13.0723C113.745 12.7962 113.469 12.4733 113.281 12.1035C113.099 11.7285 113.008 11.3223 113.008 10.8848ZM115.445 10.8066C115.445 10.9577 115.484 11.1035 115.562 11.2441C115.641 11.3796 115.766 11.502 115.938 11.6113C116.109 11.7155 116.328 11.8014 116.594 11.8691C116.865 11.9316 117.19 11.9629 117.57 11.9629C117.977 11.9629 118.37 11.9264 118.75 11.8535C119.13 11.7806 119.484 11.6842 119.812 11.5645C120.141 11.4447 120.438 11.3066 120.703 11.1504C120.969 10.9941 121.19 10.8327 121.367 10.666V10.2598C121.013 10.1608 120.661 10.0775 120.312 10.0098C119.969 9.94206 119.638 9.88997 119.32 9.85352C119.008 9.81185 118.711 9.7832 118.43 9.76758C118.154 9.75195 117.911 9.74414 117.703 9.74414C117.271 9.74414 116.911 9.77279 116.625 9.83008C116.339 9.88737 116.107 9.96549 115.93 10.0645C115.753 10.1582 115.628 10.2702 115.555 10.4004C115.482 10.5306 115.445 10.666 115.445 10.8066ZM126.805 0.830078H129.117V13.791H126.805V0.830078Z" fill="#253C2F"/>
</svg>
