<svg width="121" height="120" viewBox="0 0 121 120" fill="none" xmlns="http://www.w3.org/2000/svg">
<path d="M102.81 17.4564C79.3687 -5.85789 41.4695 -5.81937 18.0743 17.5758C-5.3594 41.0095 -5.3594 78.9973 18.0743 102.431C41.508 125.865 79.4958 125.865 102.93 102.431C102.945 102.416 102.96 102.4 102.972 102.385C126.359 78.9511 126.344 40.9941 102.926 17.5758C102.887 17.5373 102.849 17.4988 102.806 17.4602L102.81 17.4564ZM100.291 94.6994C97.0355 91.5328 90.4595 89.8724 90.4595 89.8724C90.4595 89.8724 92.1237 96.4561 95.2942 99.7113C75.3969 117.185 45.4952 117.166 25.621 99.6535C25.6287 99.6458 25.6364 99.6381 25.6441 99.6304C28.8685 96.406 30.5597 89.7106 30.5597 89.7106C30.5597 89.7106 23.8605 91.4018 20.64 94.6262C20.64 94.6262 20.6361 94.6301 20.6322 94.6339C3.3276 74.7598 3.37768 45.0198 20.7825 25.2034C20.7902 25.2111 20.794 25.215 20.7979 25.2227C24.0223 28.4471 30.7176 30.1383 30.7176 30.1383C30.7176 30.1383 29.0265 23.4391 25.8021 20.2185C25.8021 20.2185 25.7944 20.2108 25.7905 20.207C45.6107 2.89459 75.2775 2.87533 95.117 20.1492C91.9542 23.4044 90.2939 29.9765 90.2939 29.9765C90.2939 29.9765 96.8852 28.3084 100.137 25.1379C117.622 44.9774 117.669 74.806 100.287 94.7071L100.291 94.6994Z" fill="#EBF473"/>
<path d="M67.203 38.3553C67.203 51.9155 60.6194 59.7935 60.6194 59.7935C60.6194 59.7935 54.0358 51.9155 54.0358 38.3553C54.0358 24.7951 60.6194 7.13986 60.6194 7.13986C60.6194 7.13986 67.203 24.7951 67.203 38.3553Z" fill="#EBF473"/>
<path d="M54.0396 81.2355C54.0396 67.6753 60.6233 59.7973 60.6233 59.7973C60.6233 59.7973 67.2069 67.6753 67.2069 81.2355C67.2069 94.7957 60.6233 112.451 60.6233 112.451C60.6233 112.451 54.0396 94.7957 54.0396 81.2355Z" fill="#EBF473"/>
<path d="M82.0576 66.3771C68.4974 66.3771 60.6194 59.7935 60.6194 59.7935C60.6194 59.7935 68.4974 53.2098 82.0576 53.2098C95.6178 53.2098 113.273 59.7935 113.273 59.7935C113.273 59.7935 95.6178 66.3771 82.0576 66.3771Z" fill="#EBF473"/>
<path d="M39.1812 53.2137C52.7414 53.2137 60.6194 59.7973 60.6194 59.7973C60.6194 59.7973 52.7414 66.381 39.1812 66.381C25.621 66.381 7.9658 59.7973 7.9658 59.7973C7.9658 59.7973 25.621 53.2137 39.1812 53.2137Z" fill="#EBF473"/>
<path d="M50.7613 43.7331C54.7562 47.728 53.9741 53.1521 53.9741 53.1521C53.9741 53.1521 48.5501 53.9341 44.5552 49.9392C40.5603 45.9444 38.4608 37.6387 38.4608 37.6387C38.4608 37.6387 46.7664 39.7383 50.7613 43.7331Z" fill="#EBF473"/>
<path d="M76.6836 49.9392C72.6887 53.9341 67.2647 53.1521 67.2647 53.1521C67.2647 53.1521 66.4827 47.728 70.4775 43.7331C74.4724 39.7383 82.778 37.6387 82.778 37.6387C82.778 37.6387 80.6785 45.9444 76.6836 49.9392Z" fill="#EBF473"/>
<path d="M70.4775 75.8577C66.4827 71.8628 67.2647 66.4387 67.2647 66.4387C67.2647 66.4387 72.6887 65.6567 76.6836 69.6516C80.6785 73.6464 82.778 81.952 82.778 81.952C82.778 81.952 74.4724 79.8525 70.4775 75.8577Z" fill="#EBF473"/>
<path d="M44.5552 69.6516C48.5501 65.6567 53.9741 66.4387 53.9741 66.4387C53.9741 66.4387 54.7562 71.8628 50.7613 75.8577C46.7664 79.8525 38.4608 81.952 38.4608 81.952C38.4608 81.952 40.5603 73.6464 44.5552 69.6516Z" fill="#EBF473"/>
</svg>
