<svg width="36" height="36" viewBox="0 0 36 36" fill="none" xmlns="http://www.w3.org/2000/svg">
<rect width="36" height="36" rx="18" fill="#6E7D74"/>
<path d="M27.8722 8.07294C22.4026 2.63323 13.5596 2.64222 8.10083 8.10081C2.63306 13.5684 2.63306 22.4317 8.10083 27.8993C13.5686 33.3669 22.4323 33.3669 27.9001 27.8993C27.9037 27.8957 27.9073 27.8921 27.91 27.8885C33.3669 22.4209 33.3633 13.5648 27.8992 8.10081C27.8902 8.09182 27.8812 8.08283 27.8713 8.07384L27.8722 8.07294ZM27.2843 26.0954C26.5248 25.3565 24.9904 24.9691 24.9904 24.9691C24.9904 24.9691 25.3788 26.5052 26.1185 27.2647C21.4759 31.3418 14.4989 31.3373 9.8617 27.2513C9.8635 27.2495 9.8653 27.2477 9.8671 27.2459C10.6194 26.4935 11.014 24.9314 11.014 24.9314C11.014 24.9314 9.45092 25.326 8.69947 26.0783C8.69947 26.0783 8.69858 26.0792 8.69768 26.0801C4.65999 21.443 4.67168 14.5041 8.73273 9.88049C8.73453 9.88229 8.73543 9.88319 8.73633 9.88498C9.48868 10.6373 11.0509 11.0319 11.0509 11.0319C11.0509 11.0319 10.6563 9.46882 9.90395 8.7174C9.90395 8.7174 9.90215 8.71561 9.90125 8.71471C14.5259 4.67537 21.448 4.67088 26.0772 8.70122C25.3392 9.46074 24.9518 10.9941 24.9518 10.9941C24.9518 10.9941 26.4897 10.6049 27.2484 9.86521C31.3283 14.4942 31.3391 21.4538 27.2834 26.0972L27.2843 26.0954Z" fill="#F5F9B9"/>
<path d="M19.5641 12.9492C19.5641 16.113 18.0279 17.9511 18.0279 17.9511C18.0279 17.9511 16.4918 16.113 16.4918 12.9492C16.4918 9.78528 18.0279 5.66594 18.0279 5.66594C18.0279 5.66594 19.5641 9.78528 19.5641 12.9492Z" fill="#F5F9B9"/>
<path d="M16.4927 22.954C16.4927 19.7901 18.0288 17.952 18.0288 17.952C18.0288 17.952 19.565 19.7901 19.565 22.954C19.565 26.1179 18.0288 30.2372 18.0288 30.2372C18.0288 30.2372 16.4927 26.1179 16.4927 22.954Z" fill="#F5F9B9"/>
<path d="M23.0301 19.4872C19.8661 19.4872 18.0279 17.9511 18.0279 17.9511C18.0279 17.9511 19.8661 16.415 23.0301 16.415C26.1941 16.415 30.3136 17.9511 30.3136 17.9511C30.3136 17.9511 26.1941 19.4872 23.0301 19.4872Z" fill="#F5F9B9"/>
<path d="M13.0257 16.4159C16.1897 16.4159 18.0279 17.952 18.0279 17.952C18.0279 17.952 16.1897 19.4881 13.0257 19.4881C9.86175 19.4881 5.74226 17.952 5.74226 17.952C5.74226 17.952 9.86175 16.4159 13.0257 16.4159Z" fill="#F5F9B9"/>
<path d="M15.7277 14.2039C16.6598 15.136 16.4774 16.4016 16.4774 16.4016C16.4774 16.4016 15.2118 16.584 14.2797 15.6519C13.3475 14.7198 12.8577 12.782 12.8577 12.782C12.8577 12.782 14.7956 13.2718 15.7277 14.2039Z" fill="#F5F9B9"/>
<path d="M21.7762 15.6519C20.844 16.584 19.5784 16.4016 19.5784 16.4016C19.5784 16.4016 19.396 15.136 20.3281 14.2039C21.2602 13.2718 23.1982 12.782 23.1982 12.782C23.1982 12.782 22.7083 14.7198 21.7762 15.6519Z" fill="#F5F9B9"/>
<path d="M20.3281 21.6993C19.396 20.7672 19.5784 19.5016 19.5784 19.5016C19.5784 19.5016 20.844 19.3192 21.7762 20.2512C22.7083 21.1833 23.1982 23.1212 23.1982 23.1212C23.1982 23.1212 21.2602 22.6313 20.3281 21.6993Z" fill="#F5F9B9"/>
<path d="M14.2797 20.2512C15.2118 19.3192 16.4774 19.5016 16.4774 19.5016C16.4774 19.5016 16.6598 20.7672 15.7277 21.6993C14.7956 22.6313 12.8577 23.1212 12.8577 23.1212C12.8577 23.1212 13.3475 21.1833 14.2797 20.2512Z" fill="#F5F9B9"/>
</svg>
