<svg width="211" height="26" viewBox="0 0 211 26" fill="none" xmlns="http://www.w3.org/2000/svg">
<path d="M0.9375 12.6469C0.9375 10.9074 1.26563 9.28757 1.92188 7.78757C2.57813 6.27715 3.52604 4.96986 4.76562 3.86569C6.01562 2.75111 7.53646 1.87611 9.32812 1.24069C11.1302 0.605275 13.1667 0.287567 15.4375 0.287567C17.4271 0.287567 19.25 0.490692 20.9062 0.896942C22.5729 1.29278 24.1198 1.90215 25.5469 2.72507L23.2656 6.47507C22.8385 6.19382 22.3438 5.94382 21.7812 5.72507C21.2292 5.50632 20.6354 5.32403 20 5.17819C19.375 5.02194 18.724 4.90215 18.0469 4.81882C17.3802 4.73548 16.7188 4.69382 16.0625 4.69382C14.4792 4.69382 13.0677 4.89173 11.8281 5.28757C10.5885 5.67298 9.54167 6.21986 8.6875 6.92819C7.84375 7.62611 7.19792 8.46465 6.75 9.44382C6.3125 10.4126 6.09375 11.4803 6.09375 12.6469C6.09375 13.8553 6.32292 14.9647 6.78125 15.9751C7.23958 16.9855 7.90104 17.8605 8.76563 18.6001C9.64063 19.3292 10.7031 19.9022 11.9531 20.3188C13.2135 20.7251 14.6354 20.9282 16.2188 20.9282C16.9375 20.9282 17.651 20.8761 18.3594 20.7719C19.0677 20.6678 19.75 20.5272 20.4063 20.3501C21.0729 20.1626 21.7135 19.9438 22.3281 19.6938C22.9427 19.4334 23.5156 19.1522 24.0469 18.8501L26.3281 22.6001C24.9948 23.4542 23.4531 24.1261 21.7031 24.6157C19.9531 25.0949 18.0938 25.3344 16.125 25.3344C13.6146 25.3344 11.4115 25.0115 9.51563 24.3657C7.61979 23.7094 6.03646 22.8136 4.76563 21.6782C3.49479 20.5324 2.53646 19.1886 1.89063 17.6469C1.25521 16.0949 0.9375 14.4282 0.9375 12.6469ZM30.3594 12.7251C30.3594 10.8813 30.6979 9.19382 31.375 7.66257C32.0521 6.13132 33 4.81882 34.2188 3.72507C35.4479 2.6209 36.9167 1.76673 38.625 1.16257C40.3438 0.5584 42.2448 0.256317 44.3281 0.256317C46.401 0.256317 48.2969 0.5584 50.0156 1.16257C51.7344 1.76673 53.2031 2.6209 54.4219 3.72507C55.651 4.81882 56.6042 6.13132 57.2812 7.66257C57.9583 9.19382 58.2969 10.8813 58.2969 12.7251C58.2969 14.5792 57.9583 16.2824 57.2812 17.8344C56.6042 19.3761 55.651 20.7042 54.4219 21.8188C53.2031 22.9334 51.7344 23.8032 50.0156 24.4282C48.2969 25.0428 46.401 25.3501 44.3281 25.3501C42.2448 25.3501 40.3438 25.0428 38.625 24.4282C36.9167 23.8032 35.4479 22.9334 34.2188 21.8188C33 20.7042 32.0521 19.3761 31.375 17.8344C30.6979 16.2824 30.3594 14.5792 30.3594 12.7251ZM35.3125 12.7251C35.3125 13.9855 35.5365 15.1209 35.9844 16.1313C36.4427 17.1417 37.0729 18.0063 37.875 18.7251C38.6875 19.4334 39.6406 19.9803 40.7344 20.3657C41.8385 20.7511 43.0365 20.9438 44.3281 20.9438C45.6198 20.9438 46.8125 20.7511 47.9063 20.3657C49.0104 19.9803 49.9635 19.4334 50.7656 18.7251C51.5677 18.0063 52.1979 17.1417 52.6562 16.1313C53.1146 15.1209 53.3438 13.9855 53.3438 12.7251C53.3438 11.4647 53.1146 10.3344 52.6562 9.33444C52.1979 8.33444 51.5677 7.49069 50.7656 6.80319C49.9635 6.10528 49.0104 5.57403 47.9062 5.20944C46.8125 4.84486 45.6198 4.66257 44.3281 4.66257C43.0365 4.66257 41.8385 4.84486 40.7344 5.20944C39.6406 5.57403 38.6875 6.10528 37.875 6.80319C37.0729 7.49069 36.4427 8.33444 35.9844 9.33444C35.5365 10.3344 35.3125 11.4647 35.3125 12.7251ZM63.8125 0.584442L68.7656 0.584442L77.6406 9.49069L86.5156 0.584442L91.4688 0.584442V25.0063H86.5156V7.44382L77.6406 15.9907L68.7656 7.44382V25.0063H63.8125V0.584442ZM98.4219 0.584442L111.297 0.584442C113.172 0.584442 114.797 0.787567 116.172 1.19382C117.547 1.60007 118.688 2.18861 119.594 2.95944C120.5 3.71986 121.172 4.65215 121.609 5.75632C122.057 6.86048 122.281 8.10528 122.281 9.49069C122.281 10.7928 122.062 11.9959 121.625 13.1001C121.188 14.2042 120.516 15.1626 119.609 15.9751C118.714 16.7772 117.578 17.4074 116.203 17.8657C114.828 18.3136 113.203 18.5376 111.328 18.5376L103.375 18.5219V25.0063H98.4219V0.584442ZM111.422 14.2407C112.359 14.2407 113.177 14.1313 113.875 13.9126C114.583 13.6834 115.172 13.3657 115.641 12.9594C116.12 12.5428 116.474 12.0428 116.703 11.4594C116.943 10.8657 117.062 10.2094 117.062 9.49069C117.062 8.04278 116.589 6.91778 115.641 6.11569C114.703 5.30319 113.297 4.89694 111.422 4.89694L103.375 4.89694V14.2407L111.422 14.2407ZM136.031 0.584442L141.281 0.584442L153.094 25.0063L147.891 25.0063L145.938 20.8969L131.672 20.8969L129.781 25.0063H124.562L136.031 0.584442ZM143.984 16.8188L138.703 5.72507L133.562 16.8188H143.984ZM158.031 17.7407C158.917 18.2407 159.812 18.6938 160.719 19.1001C161.635 19.4959 162.583 19.8344 163.562 20.1157C164.542 20.3865 165.568 20.5949 166.641 20.7407C167.724 20.8865 168.875 20.9594 170.094 20.9594C171.562 20.9594 172.812 20.8657 173.844 20.6782C174.875 20.4803 175.714 20.2147 176.359 19.8813C177.016 19.5376 177.49 19.1313 177.781 18.6626C178.083 18.1938 178.234 17.6834 178.234 17.1313C178.234 16.2459 177.865 15.548 177.125 15.0376C176.385 14.5167 175.245 14.2563 173.703 14.2563C173.026 14.2563 172.312 14.3032 171.562 14.3969C170.812 14.4803 170.052 14.574 169.281 14.6782C168.521 14.7824 167.766 14.8813 167.016 14.9751C166.276 15.0584 165.578 15.1001 164.922 15.1001C163.828 15.1001 162.776 14.9594 161.766 14.6782C160.766 14.3969 159.875 13.9751 159.094 13.4126C158.323 12.8501 157.708 12.1469 157.25 11.3032C156.792 10.4594 156.562 9.47507 156.562 8.35007C156.562 7.6834 156.651 7.02194 156.828 6.36569C157.016 5.70944 157.307 5.08444 157.703 4.49069C158.109 3.88653 158.63 3.32923 159.266 2.81882C159.901 2.29798 160.667 1.85007 161.562 1.47507C162.469 1.10007 163.51 0.8084 164.688 0.600067C165.875 0.381317 167.224 0.271942 168.734 0.271942C169.828 0.271942 170.927 0.334442 172.031 0.459442C173.135 0.574025 174.208 0.740692 175.25 0.959442C176.302 1.17819 177.312 1.44382 178.281 1.75632C179.25 2.0584 180.151 2.39694 180.984 2.77194L178.812 6.77194C178.125 6.46986 177.385 6.19382 176.594 5.94382C175.802 5.6834 174.974 5.45944 174.109 5.27194C173.245 5.08444 172.349 4.93861 171.422 4.83444C170.505 4.71986 169.568 4.66257 168.609 4.66257C167.245 4.66257 166.12 4.76153 165.234 4.95944C164.359 5.15736 163.661 5.41257 163.141 5.72507C162.62 6.02715 162.255 6.3709 162.047 6.75632C161.849 7.13132 161.75 7.50632 161.75 7.88132C161.75 8.61048 162.078 9.20944 162.734 9.67819C163.391 10.1365 164.391 10.3657 165.734 10.3657C166.276 10.3657 166.896 10.3292 167.594 10.2563C168.302 10.173 169.042 10.0844 169.812 9.99069C170.594 9.89694 171.385 9.81361 172.188 9.74069C173 9.65736 173.786 9.61569 174.547 9.61569C175.984 9.61569 177.255 9.77715 178.359 10.1001C179.474 10.423 180.406 10.8865 181.156 11.4907C181.906 12.0844 182.474 12.8084 182.859 13.6626C183.245 14.5063 183.438 15.4542 183.438 16.5063C183.438 17.9126 183.109 19.1678 182.453 20.2719C181.807 21.3657 180.88 22.2928 179.672 23.0532C178.474 23.8032 177.026 24.3761 175.328 24.7719C173.63 25.1574 171.74 25.3501 169.656 25.3501C168.281 25.3501 166.938 25.2615 165.625 25.0844C164.312 24.9178 163.052 24.6782 161.844 24.3657C160.646 24.0428 159.5 23.6626 158.406 23.2251C157.323 22.7772 156.318 22.2876 155.391 21.7563L158.031 17.7407ZM196.25 4.92819L187.234 4.92819V0.584442L210.219 0.584442V4.92819L201.203 4.92819V25.0063H196.25V4.92819Z" fill="#EBF473"/>
</svg>
