<svg width="32" height="32" viewBox="0 0 32 32" fill="none" xmlns="http://www.w3.org/2000/svg">
<path d="M27.2829 4.7998C21.0319 -1.22306 10.9255 -1.21311 4.68674 4.83065C-1.56225 10.8844 -1.56225 20.6979 4.68674 26.7516C10.9357 32.8053 21.0658 32.8053 27.3148 26.7516C27.3189 26.7476 27.323 26.7436 27.3261 26.7396C33.5628 20.6859 33.5587 10.8804 27.3138 4.83065C27.3035 4.8207 27.2932 4.81074 27.2819 4.80079L27.2829 4.7998ZM26.6111 24.7542C25.743 23.9362 23.9895 23.5073 23.9895 23.5073C23.9895 23.5073 24.4333 25.208 25.2787 26.049C19.9728 30.5631 11.999 30.5582 6.6992 26.034C6.70125 26.0321 6.70331 26.0301 6.70536 26.0281C7.5652 25.1951 8.01618 23.4655 8.01618 23.4655C8.01618 23.4655 6.22973 23.9024 5.37091 24.7353L5.36886 24.7373C0.754286 19.6032 0.767641 11.9203 5.40892 6.80111C5.41098 6.8031 5.41201 6.8041 5.41303 6.80609C6.27287 7.63906 8.0583 8.07595 8.0583 8.07595C8.0583 8.07595 7.60732 6.34532 6.74748 5.51334L6.7444 5.51036C12.0298 1.038 19.9409 1.03302 25.2315 5.49543C24.3881 6.33636 23.9453 8.03415 23.9453 8.03415C23.9453 8.03415 25.703 7.60323 26.57 6.7842C31.2329 11.9094 31.2452 19.6151 26.6101 24.7562L26.6111 24.7542Z" fill="#253C2F"/>
<path d="M17.7878 10.1987C17.7878 13.7018 16.0321 15.737 16.0321 15.737C16.0321 15.737 14.2765 13.7018 14.2765 10.1987C14.2765 6.6957 16.0321 2.13477 16.0321 2.13477C16.0321 2.13477 17.7878 6.6957 17.7878 10.1987Z" fill="#253C2F"/>
<path d="M14.2775 21.2761C14.2775 17.7731 16.0332 15.7379 16.0332 15.7379C16.0332 15.7379 17.7888 17.7731 17.7888 21.2761C17.7888 24.7792 16.0332 29.3401 16.0332 29.3401C16.0332 29.3401 14.2775 24.7792 14.2775 21.2761Z" fill="#253C2F"/>
<path d="M21.749 17.4377C18.1329 17.4377 16.0321 15.737 16.0321 15.737C16.0321 15.737 18.1329 14.0362 21.749 14.0362C25.3651 14.0362 30.0731 15.737 30.0731 15.737C30.0731 15.737 25.3651 17.4377 21.749 17.4377Z" fill="#253C2F"/>
<path d="M10.3153 14.0372C13.9313 14.0372 16.0321 15.737 16.0321 15.737C16.0321 15.737 13.9313 17.4387 10.3153 17.4387C6.69924 17.4387 1.99118 15.7379 1.99118 15.7379C1.99118 15.7379 6.69924 14.0372 10.3153 14.0372Z" fill="#253C2F"/>
<path d="M13.4033 11.588C14.4686 12.62 14.2601 14.0213 14.2601 14.0213C14.2601 14.0213 12.8137 14.2233 11.7484 13.1913C10.6831 12.1593 10.1232 10.0136 10.1232 10.0136C10.1232 10.0136 12.338 10.556 13.4033 11.588Z" fill="#253C2F"/>
<path d="M20.3159 13.1913C19.2506 14.2233 17.8042 14.0213 17.8042 14.0213C17.8042 14.0213 17.5957 12.62 18.661 11.588C19.7263 10.556 21.9411 10.0136 21.9411 10.0136C21.9411 10.0136 21.3812 12.1593 20.3159 13.1913Z" fill="#253C2F"/>
<path d="M18.661 19.8869C17.5957 18.8549 17.8042 17.4536 17.8042 17.4536C17.8042 17.4536 19.2506 17.2516 20.3159 18.2836C21.3812 19.3156 21.9411 21.4613 21.9411 21.4613C21.9411 21.4613 19.7263 20.9189 18.661 19.8869Z" fill="#253C2F"/>
<path d="M11.7484 18.2836C12.8137 17.2516 14.2601 17.4536 14.2601 17.4536C14.2601 17.4536 14.4686 18.8549 13.4033 19.8869C12.338 20.9189 10.1232 21.4613 10.1232 21.4613C10.1232 21.4613 10.6831 19.3156 11.7484 18.2836Z" fill="#253C2F"/>
</svg>
